<?xml version="1.0" standalone="no"?>
<!DOCTYPE svg PUBLIC "-//W3C//DTD SVG 20010904//EN"
 "http://www.w3.org/TR/2001/REC-SVG-20010904/DTD/svg10.dtd">
<svg version="1.0" xmlns="http://www.w3.org/2000/svg"
 width="1280.000000pt" height="1280.000000pt" viewBox="0 0 1280.000000 1280.000000"
 preserveAspectRatio="xMidYMid meet">
<g transform="translate(0.000000,1280.000000) scale(0.100000,-0.100000)"
fill="#000000" stroke="none">
<path d="M9824 12566 c-183 -30 -405 -123 -589 -246 -289 -194 -438 -443 -421
-700 9 -138 24 -165 25 -45 2 121 20 207 67 301 74 151 205 269 409 370 280
138 581 200 802 165 235 -38 320 -151 393 -528 67 -346 -17 -775 -245 -1238
-306 -624 -729 -987 -1360 -1168 -203 -58 -415 -76 -563 -48 -219 42 -375 125
-767 408 -263 190 -395 252 -647 307 -16 4 -28 13 -28 20 0 18 228 457 295
566 59 99 78 141 73 167 -2 11 -76 -116 -182 -312 -98 -181 -191 -350 -206
-375 l-27 -45 -119 -6 c-354 -19 -632 -144 -873 -395 -191 -198 -320 -443
-397 -754 -27 -107 -29 -128 -28 -310 1 -127 7 -233 17 -304 19 -125 21 -156
8 -156 -5 0 -52 81 -103 180 -51 99 -96 180 -99 180 -14 0 13 -84 47 -153 20
-40 68 -124 105 -189 88 -147 102 -184 134 -343 43 -209 143 -527 231 -735 79
-184 158 -318 256 -432 l49 -56 -72 -259 -71 -258 -2 -425 -1 -425 37 -270
c63 -462 186 -890 365 -1265 83 -176 257 -478 311 -542 67 -79 63 -82 -75 -74
-84 5 -115 4 -107 -4 14 -14 114 -30 194 -30 l65 0 80 -95 c112 -134 458 -453
596 -551 573 -406 1183 -645 1879 -733 141 -18 485 -41 616 -41 37 0 54 -4 54
-13 0 -7 -49 -67 -110 -134 -60 -67 -110 -127 -110 -134 0 -7 64 54 143 136
l143 149 184 7 c266 11 454 35 675 84 113 26 472 128 481 138 6 5 -23 1258
-29 1263 -1 1 -122 -44 -267 -100 -146 -57 -270 -102 -276 -99 -6 2 -30 37
-53 78 -23 41 -45 75 -48 75 -12 0 8 -61 32 -100 14 -22 25 -47 25 -55 0 -26
-103 -66 -249 -95 -75 -15 -208 -44 -296 -64 -199 -44 -367 -71 -560 -90 -364
-36 -539 -31 -1005 29 -270 35 -293 40 -445 90 -442 147 -801 369 -1130 700
-213 214 -364 413 -555 730 -242 404 -343 668 -357 941 l-6 101 44 29 c54 36
100 106 164 248 37 82 68 132 122 197 40 49 73 93 73 99 0 6 -15 8 -37 5 -92
-12 -373 -26 -384 -19 -19 11 -5 187 32 419 20 128 38 209 46 212 6 3 56 -27
110 -65 199 -142 376 -234 568 -295 175 -56 287 -71 494 -64 185 6 211 10 499
87 79 20 127 29 133 23 6 -6 -29 -72 -97 -182 -58 -94 -103 -175 -99 -179 3
-4 10 0 15 8 5 8 69 105 142 215 l133 200 190 95 c278 139 496 299 715 526
296 307 430 587 430 899 0 75 4 115 11 115 6 0 64 -46 130 -101 66 -56 122
-99 125 -97 3 3 -55 59 -129 124 -82 72 -150 143 -175 179 -76 113 -153 177
-297 248 -110 54 -158 71 -315 110 -487 121 -811 120 -1185 -5 -449 -149 -882
-478 -1137 -863 -63 -95 -113 -189 -143 -267 -32 -86 -37 -80 -143 177 -251
607 -324 1084 -231 1514 72 329 222 582 426 716 23 15 48 25 56 22 7 -3 112
-120 233 -260 120 -141 222 -256 226 -256 15 -2 -14 56 -55 110 -23 31 -99
119 -169 195 -155 170 -190 213 -186 233 8 43 293 62 418 28 94 -26 247 -102
392 -195 252 -161 411 -239 643 -317 216 -72 553 -149 778 -176 417 -51 977
218 1310 631 210 260 403 661 546 1135 93 305 129 510 138 780 9 272 -22 473
-99 634 -43 92 -166 213 -268 264 -144 72 -340 100 -506 73z m-1475 -4226
c312 -33 586 -133 729 -266 153 -141 164 -296 39 -539 -178 -342 -675 -769
-1088 -934 -86 -34 -331 -72 -584 -90 -230 -16 -455 15 -612 85 -128 56 -228
138 -359 294 -93 110 -117 157 -108 205 9 49 73 173 174 334 254 409 458 589
837 740 154 61 243 86 463 130 266 52 341 58 509 41z"/>
<path d="M9381 12002 c-13 -18 -92 -93 -175 -166 -240 -210 -300 -289 -294
-384 l3 -47 22 42 c33 60 101 129 114 116 8 -8 -2 -33 -34 -89 -25 -43 -44
-80 -42 -82 8 -8 82 57 137 120 69 78 157 201 209 290 71 122 120 284 60 200z"/>
<path d="M7885 11579 c-257 -12 -474 -79 -544 -168 -59 -74 -80 -180 -66 -327
6 -71 8 -77 21 -59 8 11 21 41 28 66 20 66 41 104 69 122 34 22 103 41 122 33
14 -5 3 -21 -58 -85 -100 -105 -121 -146 -122 -238 0 -65 3 -75 31 -110 45
-57 123 -93 201 -93 139 0 213 69 318 300 85 186 193 348 333 501 29 31 52 60
52 63 0 7 -181 5 -385 -5z"/>
<path d="M8705 11266 c-64 -68 -90 -128 -170 -391 -20 -66 -54 -151 -76 -189
-22 -38 -37 -71 -35 -74 9 -8 164 149 221 223 98 128 173 275 190 370 l7 40
-42 -40 c-23 -22 -50 -55 -61 -72 -21 -34 -39 -43 -39 -20 0 18 66 153 79 162
6 3 9 11 6 16 -12 19 -49 8 -80 -25z"/>
<path d="M8970 11274 c0 -4 15 -32 34 -63 51 -85 57 -99 47 -106 -14 -8 -80
53 -112 104 l-28 44 -11 -27 c-28 -76 52 -176 248 -312 70 -49 157 -117 195
-153 37 -35 67 -59 67 -52 0 24 -80 178 -138 268 -66 100 -183 229 -249 274
-42 29 -53 34 -53 23z"/>
<path d="M7139 9428 c-46 -17 -129 -89 -156 -136 -22 -37 -28 -59 -28 -107 0
-104 72 -193 200 -246 98 -41 50 -67 -61 -34 -53 16 -89 48 -145 130 l-34 50
-3 -35 c-5 -51 16 -146 48 -217 36 -79 103 -145 178 -175 51 -21 73 -23 212
-23 157 0 190 5 629 92 23 4 22 6 -20 30 -106 62 -169 124 -364 358 -78 94
-167 190 -196 214 -96 77 -205 119 -260 99z"/>
<path d="M4260 9306 c0 -3 41 -52 91 -108 121 -135 147 -175 238 -379 83 -187
111 -237 168 -300 61 -68 114 -92 207 -96 70 -3 86 -1 120 19 57 33 86 93 86
178 0 120 -50 229 -130 285 -37 25 -53 55 -31 55 20 0 98 -39 127 -63 19 -16
45 -58 65 -102 18 -41 36 -72 40 -68 5 5 13 51 20 104 19 167 -20 265 -140
346 -70 48 -179 86 -314 109 -93 16 -547 33 -547 20z"/>
<path d="M2610 8066 c-96 -34 -123 -50 -168 -101 -90 -102 -132 -253 -132
-477 0 -156 19 -315 56 -456 69 -270 193 -562 314 -742 72 -108 196 -240 290
-311 90 -68 246 -143 365 -176 91 -25 116 -28 270 -28 194 0 267 12 460 76
147 49 322 134 475 230 205 129 309 166 440 156 88 -7 110 -14 110 -33 0 -8
-48 -73 -106 -144 -58 -72 -103 -130 -101 -130 3 0 58 61 122 135 64 74 120
135 125 135 4 0 30 -17 57 -39 127 -100 212 -236 255 -406 19 -77 22 -116 22
-270 0 -191 -11 -278 -61 -470 -35 -135 -160 -455 -178 -455 -8 0 -37 44 -64
98 -66 126 -132 214 -251 332 -210 209 -478 350 -744 391 -117 18 -545 -9
-669 -42 -58 -15 -126 -51 -174 -91 -60 -50 -195 -206 -189 -217 4 -5 8 -48
10 -94 3 -47 10 -105 16 -129 75 -294 350 -592 730 -789 l141 -74 81 -128 c45
-70 85 -130 90 -133 18 -11 -23 69 -67 132 -47 68 -55 94 -29 94 8 0 77 -15
152 -34 169 -43 260 -52 380 -37 174 21 345 91 542 219 55 37 98 58 103 53 23
-23 40 -242 41 -526 0 -257 -2 -303 -22 -408 -39 -213 -89 -328 -252 -585
-204 -320 -386 -514 -645 -685 -193 -127 -484 -244 -674 -272 -177 -25 -532
-39 -668 -26 -230 21 -783 146 -783 175 0 8 -9 12 -22 9 -13 -2 -99 23 -192
56 -93 34 -171 60 -172 58 -4 -4 -24 -601 -24 -724 l0 -102 107 -35 c207 -66
451 -106 650 -106 l116 0 100 -97 101 -98 -72 83 c-40 46 -70 87 -67 93 4 5
36 9 73 9 363 1 810 94 1132 235 340 149 572 321 862 641 37 41 91 64 150 64
13 0 30 5 38 11 11 7 3 9 -30 8 -63 -1 -70 0 -70 12 0 6 41 76 92 157 50 80
115 193 144 251 244 491 333 1344 188 1801 -13 41 -24 83 -24 93 0 10 36 79
81 155 141 240 171 312 237 564 59 223 61 230 130 345 39 65 74 132 77 148 l7
30 -21 -33 c-12 -18 -37 -64 -56 -102 -19 -39 -39 -70 -44 -70 -5 0 -6 78 -4
173 4 103 1 200 -6 243 -42 273 -187 540 -372 688 -135 108 -274 158 -443 160
-117 1 -85 -34 -249 268 -61 114 -113 203 -115 197 -9 -23 37 -121 123 -265
52 -86 97 -166 101 -176 8 -27 -9 -41 -82 -71 -96 -39 -359 -182 -484 -264
-200 -132 -293 -170 -440 -180 -203 -13 -514 85 -727 229 -302 203 -530 559
-633 988 -29 121 -32 352 -6 469 44 197 120 280 272 297 122 13 343 -33 491
-101 211 -97 306 -222 331 -430 l8 -70 8 51 c33 220 -156 461 -451 576 -176
68 -364 85 -483 44z m1565 -2781 c368 -60 637 -228 838 -525 61 -89 157 -272
157 -298 0 -25 -90 -142 -167 -219 -87 -85 -177 -128 -308 -147 -121 -18 -175
-18 -370 0 -250 22 -378 85 -677 328 -283 231 -413 469 -337 618 60 118 247
226 444 258 78 12 306 4 420 -15z"/>
<path d="M3185 7680 c22 -76 108 -232 156 -284 80 -88 117 -100 80 -28 -12 23
-17 43 -12 46 10 6 61 -49 61 -65 0 -5 5 -9 10 -9 6 0 10 14 10 31 0 32 -9 42
-230 254 -62 60 -81 74 -75 55z"/>
<path d="M9795 7690 c3 -5 37 -28 75 -50 83 -48 110 -94 110 -183 0 -31 -4
-57 -8 -57 -4 0 -22 28 -39 63 -62 126 -165 207 -263 207 -69 0 -144 -49 -184
-120 -26 -46 -31 -66 -31 -120 0 -128 75 -231 280 -385 137 -102 208 -177 314
-328 46 -64 87 -120 92 -123 15 -9 30 46 45 166 7 63 23 160 34 215 27 132 37
324 21 405 -34 171 -130 270 -300 306 -78 16 -155 19 -146 4z"/>
<path d="M3920 7441 c0 -5 35 -50 79 -100 63 -73 88 -112 126 -198 93 -209
144 -264 250 -271 58 -4 65 -2 95 25 29 26 34 37 38 90 5 71 -24 149 -69 188
-54 44 -28 62 32 22 19 -12 45 -43 59 -67 l25 -45 3 53 c5 86 -22 159 -78 214
-53 51 -101 70 -225 88 -88 12 -335 13 -335 1z"/>
<path d="M3580 7245 c0 -3 7 -22 15 -42 23 -55 18 -60 -20 -23 -21 21 -35 28
-35 19 0 -27 66 -164 107 -224 50 -72 153 -176 153 -154 0 28 -128 338 -157
382 -24 36 -63 62 -63 42z"/>
<path d="M3391 7194 c-45 -32 -150 -167 -191 -245 -23 -44 -40 -82 -38 -85 3
-2 16 9 31 25 14 17 61 53 104 82 130 87 193 156 193 214 0 35 -14 31 -40 -10
-32 -51 -67 -45 -39 7 14 27 8 31 -20 12z"/>
<path d="M7392 6038 c-86 -43 -162 -128 -241 -270 -35 -62 -86 -153 -114 -202
-70 -123 -153 -224 -220 -266 -31 -19 -56 -38 -57 -41 0 -9 246 -19 452 -19
183 0 285 13 365 46 147 62 223 190 223 376 0 86 -11 106 -28 49 -19 -61 -65
-116 -123 -145 -52 -26 -119 -35 -119 -16 0 5 28 32 63 60 77 64 103 94 128
145 20 43 25 128 9 169 -18 48 -79 104 -136 126 -77 28 -127 26 -202 -12z"/>
<path d="M4543 5981 c-28 -21 -85 -78 -129 -127 -157 -175 -200 -217 -252
-251 -30 -19 -51 -37 -48 -40 2 -3 67 -19 143 -36 101 -22 166 -30 243 -31 96
-1 110 1 163 27 70 35 104 81 124 168 8 34 12 63 10 65 -2 2 -18 -14 -35 -35
-32 -40 -90 -68 -117 -57 -23 8 -18 32 9 44 36 16 95 71 113 105 35 68 -5 159
-84 193 -54 23 -87 17 -140 -25z"/>
<path d="M3003 4934 c-20 -18 -22 -22 -7 -15 21 10 52 41 41 41 -3 0 -19 -12
-34 -26z"/>
<path d="M2746 4850 c-110 -43 -131 -96 -131 -330 0 -155 8 -221 37 -322 6
-21 15 -38 19 -38 5 0 31 33 58 73 55 80 95 121 191 192 171 127 227 215 200
316 -15 54 -65 105 -112 114 -63 12 -121 -22 -170 -99 -23 -37 -45 -66 -50
-66 -15 0 -20 51 -8 80 7 17 31 46 54 65 l41 35 -40 -1 c-22 0 -62 -9 -89 -19z"/>
<path d="M9690 3821 l-45 -6 106 -105 c126 -126 142 -148 249 -359 123 -242
188 -319 300 -362 89 -34 154 -19 234 52 118 103 70 316 -96 427 -64 42 -41
56 45 26 57 -19 106 -71 142 -153 15 -33 31 -61 36 -61 15 0 22 114 10 194
-20 145 -80 229 -205 287 -110 50 -185 61 -471 64 -143 2 -280 0 -305 -4z"/>
<path d="M4339 3771 c-97 -81 -92 -211 11 -276 46 -29 51 -45 15 -45 -41 0
-78 25 -103 69 -13 23 -26 41 -29 41 -11 0 6 -118 23 -159 21 -54 91 -115 151
-132 35 -10 105 -14 261 -12 118 1 216 4 220 7 3 3 -28 41 -70 84 -54 56 -90
106 -132 183 -103 189 -171 258 -263 266 -42 4 -52 1 -84 -26z"/>
<path d="M5903 3320 c-157 -103 -293 -253 -426 -468 -51 -82 -111 -192 -105
-192 2 0 57 11 123 25 167 36 318 42 494 20 84 -10 180 -16 238 -13 84 3 105
8 149 32 29 15 61 41 73 57 70 94 67 267 -5 331 -62 55 -194 66 -317 28 -38
-12 -71 -19 -74 -16 -12 12 28 53 77 80 44 24 64 29 119 28 36 -1 81 -5 99
-11 43 -13 40 -1 -12 47 -75 70 -184 112 -286 112 -52 0 -63 -5 -147 -60z"/>
<path d="M2532 2286 c-71 -21 -122 -42 -138 -57 -51 -46 -84 -162 -65 -224 5
-16 10 -23 10 -14 2 32 59 97 96 109 59 20 64 -1 11 -50 -51 -48 -86 -111 -86
-156 0 -104 144 -169 244 -110 52 30 88 81 164 231 49 96 77 137 141 206 44
48 77 89 74 93 -4 3 -81 6 -172 5 -157 0 -172 -2 -279 -33z"/>
<path d="M5248 1980 c-38 -23 -68 -44 -68 -48 0 -4 29 -7 64 -7 50 0 71 -5 92
-21 51 -37 42 -43 -53 -37 -77 5 -94 3 -130 -15 -141 -72 -109 -236 54 -273
40 -9 79 -9 194 4 148 16 176 15 337 -17 48 -9 72 -10 72 -3 0 6 -19 44 -41
86 -132 241 -261 360 -399 368 -49 3 -62 -1 -122 -37z"/>
<path d="M9324 1675 c-103 -46 -155 -92 -313 -278 -70 -84 -149 -171 -175
-195 -51 -47 -147 -112 -195 -132 -17 -7 -31 -16 -31 -20 0 -9 322 -95 454
-122 148 -29 338 -23 416 13 73 34 120 76 153 137 29 53 57 156 57 211 l0 34
-29 -40 c-35 -48 -83 -86 -130 -102 -41 -13 -141 -15 -141 -2 0 5 21 17 47 27
63 24 156 113 189 179 37 78 42 157 12 215 -18 36 -34 51 -78 72 -90 44 -140
44 -236 3z"/>
<path d="M3073 890 c-114 -84 -102 -219 25 -280 58 -28 68 -50 22 -50 -39 0
-88 25 -118 59 l-23 26 4 -47 c14 -153 125 -223 313 -198 74 9 384 77 392 85
2 1 -19 15 -45 30 -26 15 -120 101 -208 190 -161 163 -204 195 -286 210 -28 5
-41 1 -76 -25z"/>
</g>
</svg>
